<svg id="Capa_1" enable-background="new 0 0 512 512" height="512" viewBox="0 0 512 512" width="512" xmlns="http://www.w3.org/2000/svg"><g>
<path d="m1 330h510v30h-510z"/><path d="m361 390h-30v45c0 8.284-6.716 15-15 15s-15-6.716-15-15v-45h-30v45c0 8.284-6.716 15-15 15s-15-6.716-15-15v-45h-30v122h150z" fill="#FFF"/>
<path d="m181 512v-122h-30v45c0 8.284-6.716 15-15 15s-15-6.716-15-15v-45h-30v122z" fill="#FFF"/>
<path d="m511 300v-25.833c0-51.924-42.243-94.167-94.167-94.167-41.883 0-78.921-26.695-92.164-66.428-22.644-67.931-85.968-113.572-157.573-113.572-91.586 0-166.096 74.51-166.096 166.096v133.904z" fill="#FFF"/>
<path d="m451 390v45c0 8.284-6.716 15-15 15s-15-6.716-15-15v-45h-30v122h105c8.284 0 15-6.716 15-15v-107z" fill="#FFF"/>
<path d="m61 390h-60v107c0 8.284 6.716 15 15 15h45z" fill="#FFF"/></g></svg>