<?xml version="1.0" encoding="iso-8859-1"?>
<!-- Generator: Adobe Illustrator 19.0.0, SVG Export Plug-In . SVG Version: 6.00 Build 0)  -->
<svg version="1.1" id="Capa_1" xmlns="http://www.w3.org/2000/svg" xmlns:xlink="http://www.w3.org/1999/xlink" x="0px" y="0px"
	 viewBox="0 0 370 370" style="enable-background:new 0 0 370 370;" xml:space="preserve">
<path id="XMLID_964_" d="M249.189,79.238C222.922,55.09,209.037,27.69,209.037,0h-30v253.364
	c-6.239-2.564-13.111-3.921-20.305-3.921c-17.458,0-35.266,7.796-48.857,21.388c-25.344,25.343-28.516,63.407-7.072,84.853
	c9.232,9.232,22.016,14.316,35.995,14.316c17.458,0,35.266-7.796,48.857-21.388c11.843-11.843,19.308-26.842,21.018-42.234
	c0.244-2.198,0.355-4.379,0.355-6.537h0.01V159.826c5.808,7.304,12.425,14.393,19.848,21.217
	c31.773,29.21,25.067,66.542,9.672,89.637l24.961,16.641c17.785-26.678,24.904-63.452,9.265-96.772
	C287.573,156.367,285.576,112.691,249.189,79.238z M209.043,80.115c5.807,7.301,12.422,14.387,19.842,21.209
	c19.909,18.303,24.707,39.794,21.73,58.974c-0.471-0.448-0.941-0.896-1.425-1.341C223.047,134.924,209.176,107.67,209.043,80.115z"
	fill="#fff"
    />
<g>
</g>
<g>
</g>
<g>
</g>
<g>
</g>
<g>
</g>
<g>
</g>
<g>
</g>
<g>
</g>
<g>
</g>
<g>
</g>
<g>
</g>
<g>
</g>
<g>
</g>
<g>
</g>
<g>
</g>
</svg>
